<!-- icon666.com - MILLIONS OF FREE VECTOR ICONS --><svg id="Lingkaran_glyph" viewBox="0 0 64 64" xmlns="http://www.w3.org/2000/svg" data-name="Lingkaran glyph"><g fill="rgb(0,0,0)"><path d="m32.04 33.88a.73173.73173 0 0 1 .22.57l-.27 3.76a.71054.71054 0 0 1 -.71.66h-.05a.72132.72132 0 0 1 -.66-.76l.24-3.44-6.45-6.24a.71436.71436 0 0 1 .99-1.03l3.2 3.1 2.14-3.22a.70726.70726 0 1 1 1.18.78l-2.28 3.44z"></path><path d="m45.96 40.44c.02-.02.1-.04.05-.01-.01.01-.04.01-.05.01z"></path><path d="m32 0a32 32 0 1 0 32 32 32.004 32.004 0 0 0 -32-32zm15.72 47.75h3.23a.71513.71513 0 0 1 0 1.43h-14.37l5.37-11.88 2.9-1.55a.73194.73194 0 0 0 .28-.98.70594.70594 0 0 0 -.96-.28l-2.12 1.14-.25-3.9a.70065.70065 0 0 0 -.75-.67.71623.71623 0 0 0 -.67.76l.3 4.82v.01l-5.67 12.53h-6.66c-.83-3.38-2.54-9.58-2.78-10.46v-4.69a.70633.70633 0 0 0 -.71-.71.7149.7149 0 0 0 -.72.71v3.64l-3.92-1.87a.71117.71117 0 1 0 -.62 1.28l4.66 2.23c.36 1.33 1.82 6.67 2.62 9.87h-14.15a.71513.71513 0 0 1 0-1.43h2.89a4.397 4.397 0 0 1 3.22-7.34 4.06237 4.06237 0 0 1 1.04.13.71165.71165 0 0 0 .86-.51v-.02a.7126.7126 0 0 0 -.52-.87 5.86677 5.86677 0 0 0 -3.79.37 5.96214 5.96214 0 0 0 -2.24 1.8 7.42257 7.42257 0 0 1 6.46-12.58h.11a.70125.70125 0 0 0 .7-.61.72221.72221 0 0 0 -.61-.8 9.04463 9.04463 0 0 0 -2.49-.04c-.51-.08-1.59.67-1.44-.14a5.6711 5.6711 0 0 1 6.98-5.5c.18-7.54 10.13-9.48 12.89-2.46a4.79614 4.79614 0 0 1 5.11 3.49 8.487 8.487 0 0 0 -8.93 3.95.68061.68061 0 0 0 -.08.31.7271.7271 0 0 0 .17.46.70841.70841 0 0 0 1.17-.11 6.89183 6.89183 0 0 1 6.45-3.31c3 .12 5.94 2.24 6.25 5.3a6.31881 6.31881 0 0 1 .89 12.14 4.28431 4.28431 0 0 1 -.1 6.34z"></path></g></svg>