<svg version="1.2" xmlns="http://www.w3.org/2000/svg" viewBox="0 0 64 64" width="32" height="32">
	<title>logo</title>
	<style>
		.s0 { fill: #000000 } 
	</style>
	<g>
		<path class="s0" d="m32 33.9q0.1 0 0.1 0.1 0.1 0.1 0.1 0.1 0 0.1 0.1 0.2 0 0.1 0 0.2l-0.3 3.7q0 0.1-0.1 0.3 0 0.1-0.1 0.2-0.1 0.1-0.3 0.1-0.1 0.1-0.2 0.1h-0.1q-0.1 0-0.2-0.1-0.2-0.1-0.3-0.2 0-0.1-0.1-0.2 0-0.1 0-0.3l0.2-3.4-6.4-6.3q-0.2-0.2-0.3-0.5 0-0.3 0.2-0.5 0.3-0.2 0.5-0.2 0.3 0 0.5 0.2l3.2 3.1 2.2-3.2q0.2-0.3 0.4-0.3 0.3-0.1 0.6 0.1 0.2 0.1 0.3 0.4 0 0.3-0.1 0.6l-2.3 3.4z"/>
		<path class="s0" d="m46 40.4c0 0 0.1 0 0 0q0 0 0 0z"/>
		<path class="s0" d="m32 0c-12.9 0-24.6 7.8-29.6 19.8-4.9 11.9-2.2 25.7 7 34.8 9.1 9.2 22.9 11.9 34.8 7 12-5 19.8-16.7 19.8-29.6 0-4.2-0.8-8.4-2.4-12.2-1.6-3.9-4-7.5-7-10.4-2.9-3-6.5-5.4-10.4-7-3.8-1.6-8-2.4-12.2-2.4zm15.7 47.8h3.2q0.3 0 0.5 0.2 0.2 0.2 0.3 0.5-0.1 0.3-0.3 0.5-0.2 0.2-0.5 0.2h-14.3l5.3-11.9 2.9-1.5q0.2-0.1 0.3-0.2 0-0.1 0.1-0.3 0-0.1 0-0.3 0-0.1-0.1-0.2 0-0.2-0.1-0.2-0.2-0.1-0.3-0.2-0.1 0-0.3 0-0.1 0-0.2 0.1l-2.1 1.1-0.3-3.9q0-0.1-0.1-0.2 0-0.2-0.1-0.3-0.1-0.1-0.3-0.1-0.1 0-0.2 0-0.2 0-0.3 0-0.1 0.1-0.2 0.2-0.1 0.1-0.2 0.2 0 0.2 0 0.3l0.3 4.8v0.1l-5.7 12.5h-6.7c-0.8-3.4-2.5-9.6-2.7-10.5v-4.7q0-0.1-0.1-0.2 0-0.2-0.1-0.3-0.1-0.1-0.3-0.1-0.1-0.1-0.2-0.1-0.2 0-0.3 0.1-0.1 0-0.2 0.1-0.1 0.1-0.2 0.3-0.1 0.1-0.1 0.2v3.7l-3.9-1.9q-0.2-0.1-0.5 0-0.3 0.1-0.4 0.3-0.2 0.3-0.1 0.6 0.1 0.3 0.4 0.4l4.7 2.2c0.3 1.3 1.8 6.7 2.6 9.9h-14.2q-0.3 0-0.5-0.2-0.2-0.2-0.2-0.5 0-0.3 0.2-0.5 0.2-0.2 0.5-0.2h2.9c-0.5-0.7-0.9-1.5-1.1-2.3-0.1-0.8 0-1.7 0.4-2.5 0.3-0.7 0.9-1.4 1.6-1.9 0.7-0.4 1.5-0.7 2.3-0.7q0.2 0 0.3 0 0.1 0 0.3 0 0.1 0.1 0.2 0.1 0.2 0 0.3 0 0.1 0.1 0.3 0.1 0.1-0.1 0.2-0.1 0.1-0.1 0.2-0.2 0.1-0.1 0.1-0.3 0.1-0.1 0.1-0.3-0.1-0.1-0.1-0.2-0.1-0.2-0.2-0.2-0.1-0.1-0.3-0.2-0.5-0.1-0.9-0.1-0.5 0-1 0-0.5 0.1-1 0.2-0.4 0.1-0.9 0.3-0.3 0.2-0.6 0.4-0.3 0.1-0.6 0.4-0.3 0.2-0.5 0.5-0.3 0.2-0.5 0.5c-1.1-1.1-1.9-2.5-2.1-4.1-0.2-1.5 0-3.1 0.7-4.5 0.7-1.4 1.9-2.6 3.3-3.3 1.4-0.7 3-0.9 4.5-0.7h0.2q0.1 0 0.2 0 0.1-0.1 0.2-0.1 0.1-0.1 0.2-0.2 0-0.2 0.1-0.3 0-0.1-0.1-0.3 0-0.1-0.1-0.2-0.1-0.1-0.2-0.2-0.1-0.1-0.3-0.1-0.3 0-0.6-0.1-0.3 0-0.6 0-0.3 0-0.6 0-0.3 0-0.6 0.1c-0.6-0.1-1.6 0.7-1.5-0.2 0-0.8 0.2-1.7 0.6-2.4 0.4-0.8 0.9-1.5 1.6-2 0.7-0.5 1.4-0.9 2.3-1.1 0.8-0.2 1.7-0.2 2.5 0 0.2-7.5 10.1-9.4 12.9-2.4q0.8-0.1 1.7 0.1 0.8 0.2 1.5 0.7 0.7 0.5 1.2 1.2 0.5 0.7 0.7 1.5-1.3-0.3-2.6-0.1-1.3 0.1-2.5 0.6-1.2 0.6-2.2 1.4-1 0.9-1.6 2 0 0.1-0.1 0.1 0 0 0 0.1 0 0 0 0 0 0.1 0 0.1 0 0.1 0 0.2 0 0 0 0.1 0.1 0 0.1 0.1 0 0 0.1 0.1 0.1 0.1 0.2 0.2 0.2 0.1 0.4 0 0.2 0 0.3-0.1 0.1-0.1 0.2-0.2 0.5-0.8 1.2-1.5 0.7-0.7 1.6-1.1 0.8-0.4 1.8-0.6 0.9-0.2 1.9-0.1c3 0.1 5.9 2.2 6.2 5.3 1.4 0.2 2.6 1 3.5 2 0.9 1 1.5 2.3 1.6 3.7 0.1 1.4-0.3 2.7-1 3.9-0.8 1.2-1.9 2-3.2 2.5q0.7 0.6 1 1.5 0.4 0.8 0.4 1.7 0 0.9-0.4 1.7-0.4 0.9-1.1 1.5z"/>
	</g>
</svg>