<svg width="77" height="27" viewBox="0 0 77 27" fill="none" xmlns="http://www.w3.org/2000/svg">
<path d="M76.9109 5.71001C76.6336 5.57202 75.6283 6.30092 75.3393 6.40561C74.8141 6.59551 74.7281 6.79666 74.1168 7.05751C72.0296 7.9482 69.8308 8.76968 67.6774 9.49123C66.0742 10.0281 64.4429 10.4369 62.7714 10.5022C61.1912 10.564 59.6014 10.6921 58.0255 10.0752C56.826 9.60587 55.4858 9.49123 54.2063 9.22649C52.7 8.9146 51.2024 8.54301 49.6827 8.31979C47.2088 7.95599 44.9658 8.86485 42.7618 9.80096C41.5709 10.3067 40.4038 10.718 39.0853 10.4503C38.1743 10.2651 37.2576 10.0142 36.3379 9.98611C34.1123 9.91862 31.8832 9.96404 29.6558 9.96404V9.98567C27.4756 9.98567 25.2945 9.95193 23.1151 9.99476C20.6905 10.0423 18.4575 9.24768 16.4144 8.15498C14.8852 7.33739 13.3772 6.14043 13.8323 3.92128C13.9344 3.42424 13.8673 2.88394 13.8241 2.36786C13.7462 1.44127 13.2985 1.25699 12.5263 1.81286C11.8433 2.30471 11.178 2.82294 10.4824 3.29662C10.2284 3.46966 9.8149 3.73094 9.63581 3.63923C8.64389 3.13138 7.28947 3.23347 6.78767 1.84963C6.57008 1.25007 6.02157 -0.1169 5.22561 0.116263C5.22561 0.116263 4.64984 2.7122 4.67969 3.23217C4.71776 3.89705 3.87551 4.31233 3.76304 4.92747C3.53767 6.15687 3.74617 6.68765 2.89658 7.69903C2.43371 8.25014 1.73812 8.60227 1.23545 9.12786C0.974605 9.40082 -0.111614 9.90478 0.00950996 10.125C0.2271 10.5208 0.327027 10.866 0.768695 10.9746C1.39594 11.129 3.25735 10.8928 3.91877 10.8617C6.00296 10.7639 7.49192 12.2909 8.8113 13.5649C9.96803 14.6814 10.7891 16.1509 11.7023 17.5023C11.8666 17.7458 11.9103 18.306 11.7477 18.486C11.3527 18.9233 10.8531 19.3723 10.308 19.5492C8.8498 20.0229 7.3323 20.3123 5.86454 20.76C4.88084 21.0603 3.90882 21.4777 3.30277 22.3749C3.12671 22.6353 3.02505 23.0757 3.12671 23.3447C3.19247 23.5191 3.68691 23.5887 3.99275 23.5978C4.20082 23.6039 4.46772 23.4745 4.61653 23.3192C5.26152 22.6457 6.06656 22.5086 6.9447 22.5077C7.26741 22.5073 7.59012 22.3935 7.91239 22.3303C9.41649 22.0362 10.9206 21.7416 12.4247 21.4492C12.4701 21.4405 12.5259 21.4353 12.5653 21.4531C12.6795 21.505 12.788 21.5694 12.8984 21.6291C12.8015 21.7087 12.7149 21.8086 12.6059 21.8653C11.1148 22.6379 9.59082 23.353 8.13993 24.1939C7.38161 24.6334 6.71413 25.2542 6.08602 25.8736C5.88919 26.0679 5.95538 26.5255 5.90088 26.8629C6.24608 26.8634 6.64968 26.9806 6.92653 26.8435C8.09451 26.2647 9.27071 25.7209 10.4685 25.2005C12.3892 24.3665 14.3229 23.8085 16.3949 23.654C16.5788 23.6402 16.7613 23.5649 16.9378 23.5009C19.9581 22.4047 22.7552 20.7618 25.8642 19.8828C27.3869 19.4523 28.8992 18.967 30.4457 18.649C30.9752 18.54 31.6613 18.7442 32.1592 19.0163C33.1377 19.5514 33.9951 20.3067 34.9757 20.8362C36.0399 21.4102 37.1551 21.9354 38.3066 22.2936C40.0404 22.833 41.8071 23.4555 43.5941 23.5896C45.6571 23.744 47.438 24.2597 49.0088 25.5886C49.238 25.7824 51.1215 25.8433 51.2824 25.7032C51.6008 25.4263 51.2906 24.6135 51.195 24.3124C50.9355 23.4931 49.5054 23.8119 48.6194 23.3127C47.1716 22.4969 46.027 21.8986 44.5159 21.3765C43.7853 21.1239 42.9971 21.0905 42.4508 20.4529C43.1918 20.212 43.9168 19.8676 44.6769 19.7508C46.514 19.4692 48.2241 19.9278 49.8134 20.8704C50.3359 21.1805 50.855 21.5102 51.4113 21.7468C52.1363 22.0552 52.8839 22.3377 53.6491 22.5107C53.9415 22.5769 54.3101 22.3083 54.6445 22.1923C54.481 21.8329 54.8262 21.1667 54.5571 20.9223C53.9398 20.3612 52.9141 20.703 52.1995 20.2704C50.2797 19.108 48.3318 17.1757 45.9076 17.3046C44.7106 17.3682 43.6477 16.8335 42.5672 16.3922C42.0424 16.1781 41.6618 15.8982 41.5653 15.3272C41.519 15.0517 41.3914 14.5992 41.503 14.5239C41.8123 14.3158 42.254 14.1225 42.5948 14.1848C43.0339 14.2652 43.4237 14.6044 43.8389 14.8246C45.7795 15.8537 47.647 17.0935 50.002 16.9243C50.1828 16.9114 50.3701 16.9918 50.5552 17.0247C52.2921 17.3331 54.0202 17.7103 55.7688 17.9279C57.365 18.1265 58.9344 17.6961 60.5164 17.5204C61.8998 17.3669 63.1992 17.0576 64.4304 16.4995C67.0415 15.3155 69.5033 13.8915 71.5127 11.7874C73.0713 10.1552 74.6917 8.58194 76.265 6.96321C76.8274 6.38657 77.1726 5.84065 76.9109 5.71001ZM8.73906 11.5322C8.65038 11.578 8.55651 11.5365 8.47432 11.4729C8.39905 11.4149 8.27057 11.3924 8.18622 11.3384C8.06942 11.2635 8.07591 11.129 8.17886 11.0598C8.35795 10.94 8.52882 10.9209 8.6599 11.0174C8.77194 11.0996 8.86884 11.1926 8.99558 11.2999C8.89479 11.395 8.83596 11.482 8.73906 11.5322ZM12.4134 4.68436C12.4052 4.6956 12.3814 4.6956 12.3654 4.70036C12.2979 4.53554 12.3036 4.51651 12.4467 4.43043C12.4736 4.52127 12.4692 4.60649 12.4134 4.68436ZM14.6923 19.3157C14.5655 19.3624 14.431 19.3896 14.2978 19.4182C14.2619 19.426 14.2229 19.4182 14.1853 19.4173V19.4208L14.1818 19.4173C14.183 19.4172 14.1842 19.4169 14.1853 19.4173V19.1409C14.226 19.1041 14.2333 19.0916 14.2402 19.092C14.3869 19.1033 14.5348 19.1097 14.6784 19.137C14.6953 19.14 14.7092 19.3096 14.6923 19.3157ZM14.755 14.9349V14.6533L14.8554 14.6498L14.8683 14.9331L14.755 14.9349ZM17.1684 18.6694L17.0784 18.6668V18.3886L17.1866 18.3917L17.1684 18.6694ZM19.0852 13.7171C19.0588 13.7154 19.0294 13.6812 19.0138 13.654C19.0086 13.6453 19.0406 13.5986 19.0579 13.5969C19.0869 13.5939 19.1181 13.6133 19.1808 13.6337C19.1323 13.6786 19.1072 13.7184 19.0852 13.7171ZM20.1602 19.9399C20.1307 19.923 20.0788 19.9092 20.0762 19.8884C20.0715 19.8529 20.0966 19.8131 20.1178 19.7487C20.1692 19.7911 20.2181 19.8149 20.2164 19.8326C20.2121 19.8702 20.1805 19.9044 20.1602 19.9399ZM22.2785 11.4102L22.5562 11.0702L22.6453 11.0996L22.6618 11.4374L22.2785 11.4102ZM25.4558 19.5713L25.4485 19.4684L25.7266 19.4476L25.734 19.5575L25.4558 19.5713ZM25.686 15.117C25.6246 15.1447 25.5021 15.149 25.4732 15.1127C25.4501 15.0781 25.4348 15.0391 25.4282 14.9981C25.4216 14.9571 25.424 14.9152 25.4351 14.8752C25.4809 14.7432 25.5644 14.6247 25.6579 14.4534L25.8858 14.4672C25.9248 14.607 25.7876 15.0707 25.686 15.117ZM26.0515 16.7833C26.0005 16.7413 25.9516 16.7171 25.9538 16.6994C25.9616 16.6597 25.9826 16.6239 26.0134 16.5977C26.0212 16.5908 26.0909 16.625 26.0935 16.6453C26.0987 16.6808 26.0731 16.7197 26.0515 16.7833ZM27.3389 17.7821H27.056L27.0534 17.6956H27.3402L27.3389 17.7821ZM27.412 16.9101V16.7967H27.6863L27.6901 16.8949L27.412 16.9101ZM36.485 12.5591C36.4348 12.6958 36.3379 12.8152 36.238 12.9783C36.0784 12.7702 36.1359 12.5669 36.1896 12.3792C36.2025 12.3337 36.3483 12.326 36.4331 12.3009C36.453 12.3882 36.5105 12.489 36.485 12.5591ZM39.652 17.1354C39.5153 16.9693 39.2691 16.8871 39.4517 16.5718C39.6057 16.75 39.8332 16.8478 39.652 17.1354ZM49.1277 23.494C48.8959 23.5762 48.6869 23.6592 48.4719 23.7233C48.3184 23.7687 48.2686 23.6917 48.2734 23.4451C48.9075 23.1847 48.9075 23.1847 49.1277 23.494ZM50.0729 13.3698C50.0145 13.397 49.9665 13.4468 49.8943 13.5004C49.829 13.3547 49.7638 13.2089 49.6987 13.0631C49.7312 12.9934 49.7757 12.9082 49.8112 12.82C49.8943 12.6154 50.0184 12.5846 50.1785 12.7322C50.4692 12.9995 50.4346 13.1998 50.0729 13.3698ZM65.0689 14.9405C64.5468 15.1949 59.46 16.2447 58.857 16.3334C58.8548 16.3053 60.6444 15.6919 60.6423 15.6642C60.7063 14.9171 58.18 15.5284 57.7902 15.4129C57.4182 15.3026 59.1866 14.4045 59.213 14.3504C59.601 13.5605 58.202 13.8231 57.8283 13.3308C57.7729 13.2577 59.1762 13.1574 59.2839 13.0761C59.5694 12.8598 58.5806 12.393 58.9089 12.3558C60.9053 12.1309 62.9112 11.989 64.9084 11.7701C65.5858 11.6957 66.2446 11.4647 66.9177 11.3358C67.1293 11.2951 72.624 8.88475 72.8459 8.89816C72.1373 10.1578 66.9701 14.0143 65.0689 14.9405Z" fill="#222A31"/>
</svg>
